<?xml version="1.0" encoding="UTF-8"?>
<!DOCTYPE svg PUBLIC "-//W3C//DTD SVG 1.1//EN" "http://www.w3.org/Graphics/SVG/1.1/DTD/svg11.dtd">
<svg xmlns="http://www.w3.org/2000/svg" version="1.1" width="256px" height="256px" style="shape-rendering:geometricPrecision; text-rendering:geometricPrecision; image-rendering:optimizeQuality; fill-rule:evenodd; clip-rule:evenodd" xmlns:xlink="http://www.w3.org/1999/xlink">
<g><path style="opacity:1" fill="#464746" d="M 47.5,15.5 C 52.8333,15.5 58.1667,15.5 63.5,15.5C 63.5,36.8333 63.5,58.1667 63.5,79.5C 58.1667,79.5 52.8333,79.5 47.5,79.5C 47.5,58.1667 47.5,36.8333 47.5,15.5 Z"/></g>
<g><path style="opacity:1" fill="#464746" d="M 63.5,255.5 C 58.1667,255.5 52.8333,255.5 47.5,255.5C 47.5,207.5 47.5,159.5 47.5,111.5C 36.8333,111.5 26.1667,111.5 15.5,111.5C 15.5,84.8333 15.5,58.1667 15.5,31.5C 20.8333,31.5 26.1667,31.5 31.5,31.5C 31.5,52.8333 31.5,74.1667 31.5,95.5C 47.5,95.5 63.5,95.5 79.5,95.5C 79.5,74.1667 79.5,52.8333 79.5,31.5C 84.8333,31.5 90.1667,31.5 95.5,31.5C 95.5,36.8333 95.5,42.1667 95.5,47.5C 143.5,47.5 191.5,47.5 239.5,47.5C 239.5,100.833 239.5,154.167 239.5,207.5C 212.833,207.5 186.167,207.5 159.5,207.5C 159.5,212.833 159.5,218.167 159.5,223.5C 175.5,223.5 191.5,223.5 207.5,223.5C 207.5,228.833 207.5,234.167 207.5,239.5C 164.833,239.5 122.167,239.5 79.5,239.5C 79.5,234.167 79.5,228.833 79.5,223.5C 95.5,223.5 111.5,223.5 127.5,223.5C 127.5,218.167 127.5,212.833 127.5,207.5C 106.167,207.5 84.8333,207.5 63.5,207.5C 63.5,223.5 63.5,239.5 63.5,255.5 Z M 95.5,63.5 C 138.167,63.5 180.833,63.5 223.5,63.5C 223.5,106.167 223.5,148.833 223.5,191.5C 170.167,191.5 116.833,191.5 63.5,191.5C 63.5,164.833 63.5,138.167 63.5,111.5C 74.1667,111.5 84.8333,111.5 95.5,111.5C 95.5,95.5 95.5,79.5 95.5,63.5 Z"/></g>
</svg>
