<?xml version="1.0" encoding="UTF-8"?>
<!DOCTYPE svg PUBLIC "-//W3C//DTD SVG 1.1//EN" "http://www.w3.org/Graphics/SVG/1.1/DTD/svg11.dtd">
<svg xmlns="http://www.w3.org/2000/svg" version="1.1" width="16px" height="16px" style="shape-rendering:geometricPrecision; text-rendering:geometricPrecision; image-rendering:optimizeQuality; fill-rule:evenodd; clip-rule:evenodd" xmlns:xlink="http://www.w3.org/1999/xlink">
<g><path style="opacity:1" fill="#c0c0c0" d="M 2.5,-0.5 C 5.16667,-0.5 7.83333,-0.5 10.5,-0.5C 10.5,0.166667 10.8333,0.5 11.5,0.5C 11.427,2.02694 12.0937,3.02694 13.5,3.5C 13.5,3.83333 13.5,4.16667 13.5,4.5C 12.8592,5.48224 12.1925,6.48224 11.5,7.5C 11.9569,8.29755 12.6236,8.63088 13.5,8.5C 13.5,10.8333 13.5,13.1667 13.5,15.5C 10.1667,15.5 6.83333,15.5 3.5,15.5C 2.76589,14.2921 2.43255,12.9587 2.5,11.5C 4.66485,11.8841 6.33152,11.2174 7.5,9.5C 6.11252,9.19283 4.44585,9.19283 2.5,9.5C 2.5,8.5 2.5,7.5 2.5,6.5C 2.5,5.83333 2.5,5.16667 2.5,4.5C 2.5,2.83333 2.5,1.16667 2.5,-0.5 Z M 5.5,1.5 C 6.37644,1.36912 7.04311,1.70245 7.5,2.5C 5.19157,3.87342 4.52491,3.54009 5.5,1.5 Z M 8.5,1.5 C 10.337,1.63945 10.6704,2.30612 9.5,3.5C 8.70245,3.04311 8.36912,2.37644 8.5,1.5 Z M 4.5,4.5 C 6.33702,4.63945 6.67036,5.30612 5.5,6.5C 4.70245,6.04311 4.36912,5.37644 4.5,4.5 Z M 7.5,4.5 C 9.33702,4.63945 9.67036,5.30612 8.5,6.5C 7.70245,6.04311 7.36912,5.37644 7.5,4.5 Z"/></g>
<g><path style="opacity:1" fill="#f47900" d="M 11.5,0.5 C 12.8333,0.833333 14.1667,1.16667 15.5,1.5C 15.5,2.83333 15.5,4.16667 15.5,5.5C 14.5987,6.29049 13.9321,7.29049 13.5,8.5C 12.6236,8.63088 11.9569,8.29755 11.5,7.5C 12.1925,6.48224 12.8592,5.48224 13.5,4.5C 14.8333,4.16667 14.8333,3.83333 13.5,3.5C 12.0937,3.02694 11.427,2.02694 11.5,0.5 Z"/></g>
<g><path style="opacity:1" fill="#f47900" d="M 2.5,4.5 C 2.5,5.16667 2.5,5.83333 2.5,6.5C -0.166667,7.5 -0.166667,8.5 2.5,9.5C 4.44585,9.19283 6.11252,9.19283 7.5,9.5C 6.33152,11.2174 4.66485,11.8841 2.5,11.5C 1.5,10.8333 0.5,10.1667 -0.5,9.5C -0.5,8.5 -0.5,7.5 -0.5,6.5C 0.5,5.83333 1.5,5.16667 2.5,4.5 Z"/></g>
</svg>
