<?xml version="1.0" encoding="UTF-8"?>
<!DOCTYPE svg PUBLIC "-//W3C//DTD SVG 1.1//EN" "http://www.w3.org/Graphics/SVG/1.1/DTD/svg11.dtd">
<svg xmlns="http://www.w3.org/2000/svg" version="1.1" width="256px" height="256px" style="shape-rendering:geometricPrecision; text-rendering:geometricPrecision; image-rendering:optimizeQuality; fill-rule:evenodd; clip-rule:evenodd" xmlns:xlink="http://www.w3.org/1999/xlink">
<g><path style="opacity:1" fill="#464746" d="M 113.5,59.5 C 114.496,59.4142 115.329,59.7476 116,60.5C 116.667,105.167 116.667,149.833 116,194.5C 115.586,194.957 115.086,195.291 114.5,195.5C 101.847,183.348 89.3473,171.014 77,158.5C 76.3333,157.167 75.6667,155.833 75,154.5C 74.3333,136.5 74.3333,118.5 75,100.5C 75.6667,99.1667 76.3333,97.8333 77,96.5C 89.3687,84.2985 101.535,71.9651 113.5,59.5 Z"/></g>
<g><path style="opacity:1" fill="#464746" d="M 182.5,68.5 C 185.049,68.3874 187.382,69.0541 189.5,70.5C 194.593,75.4187 199.093,80.752 203,86.5C 206,94.8333 209,103.167 212,111.5C 212.667,123.833 212.667,136.167 212,148.5C 208.167,156.833 204.333,165.167 200.5,173.5C 196.5,176.833 192.833,180.5 189.5,184.5C 183.927,188.097 181.094,186.764 181,180.5C 183.267,177.228 185.933,174.228 189,171.5C 191.06,166.38 193.393,161.38 196,156.5C 196.333,152.167 196.667,147.833 197,143.5C 202.667,135.601 204,126.934 201,117.5C 199.274,115.772 197.941,113.772 197,111.5C 198.438,102.572 195.772,95.2384 189,89.5C 187.112,84.0552 184.445,79.0552 181,74.5C 180.252,72.1599 180.752,70.1599 182.5,68.5 Z"/></g>
<g><path style="opacity:1" fill="#464746" d="M 160.5,91.5 C 165.232,93.7982 170.066,95.7982 175,97.5C 175.673,102.519 177.34,107.186 180,111.5C 180.667,122.167 180.667,132.833 180,143.5C 177.653,150.366 174.153,156.532 169.5,162C 167.278,162.695 165.111,163.528 163,164.5C 161.167,164 160,162.833 159.5,161C 162.083,153.666 165.583,146.833 170,140.5C 170.667,131.833 170.667,123.167 170,114.5C 165.887,108.609 162.554,102.276 160,95.5C 159.421,94.0715 159.588,92.7382 160.5,91.5 Z"/></g>
<g><path style="opacity:1" fill="#464746" d="M 54.5,95.5 C 57.6852,95.0196 60.5185,95.6863 63,97.5C 63.6667,117.5 63.6667,137.5 63,157.5C 59.6667,160.167 56.3333,160.167 53,157.5C 52.3333,137.5 52.3333,117.5 53,97.5C 53.7172,96.9558 54.2172,96.2891 54.5,95.5 Z"/></g>
<g><path style="opacity:1" fill="#464746" d="M 140.5,106.5 C 151.881,108.91 156.547,115.91 154.5,127.5C 156.478,138.218 152.311,145.218 142,148.5C 140.167,148 139,146.833 138.5,145C 145.167,133.333 145.167,121.667 138.5,110C 138.978,108.697 139.645,107.531 140.5,106.5 Z"/></g>
</svg>
