<?xml version="1.0" encoding="UTF-8"?>
<!DOCTYPE svg PUBLIC "-//W3C//DTD SVG 1.1//EN" "http://www.w3.org/Graphics/SVG/1.1/DTD/svg11.dtd">
<svg xmlns="http://www.w3.org/2000/svg" version="1.1" width="256px" height="256px" style="shape-rendering:geometricPrecision; text-rendering:geometricPrecision; image-rendering:optimizeQuality; fill-rule:evenodd; clip-rule:evenodd" xmlns:xlink="http://www.w3.org/1999/xlink">
<g><path style="opacity:0.95" fill="#464746" d="M 113.5,58.5 C 114.822,58.33 115.989,58.6634 117,59.5C 117.667,104.833 117.667,150.167 117,195.5C 116.439,196.022 115.772,196.355 115,196.5C 113.51,195.683 112.01,194.85 110.5,194C 99.3333,182.833 88.1667,171.667 77,160.5C 76,158.5 75,156.5 74,154.5C 73.3333,136.5 73.3333,118.5 74,100.5C 75,98.5 76,96.5 77,94.5C 89.3388,82.599 101.505,70.599 113.5,58.5 Z"/></g>
<g><path style="opacity:0.872" fill="#464746" d="M 54.5,94.5 C 58.0733,94.0412 61.0733,95.0412 63.5,97.5C 64.8333,117.5 64.8333,137.5 63.5,157.5C 59.9567,161.425 56.4567,161.425 53,157.5C 52.3333,137.5 52.3333,117.5 53,97.5C 54.0386,96.7562 54.5386,95.7562 54.5,94.5 Z"/></g>
<g><path style="opacity:0.903" fill="#464746" d="M 161.5,129.5 C 188.219,130.01 202.886,143.51 205.5,170C 203.116,194.717 189.616,208.551 165,211.5C 140.5,208.333 126.667,194.5 123.5,170C 126.107,146.897 138.774,133.397 161.5,129.5 Z M 154.5,144.5 C 162.174,144.334 169.841,144.5 177.5,145C 183,147.833 187.167,152 190,157.5C 190.5,165.159 190.666,172.826 190.5,180.5C 186.869,180.84 183.536,180.006 180.5,178C 172.667,170.167 164.833,162.333 157,154.5C 154.994,151.464 154.16,148.131 154.5,144.5 Z M 138.5,160.5 C 142.463,160.089 146.13,160.922 149.5,163C 152.867,166.703 156.534,170.036 160.5,173C 165.378,178.209 169.878,183.709 174,189.5C 174.497,191.81 174.663,194.143 174.5,196.5C 167.159,196.666 159.826,196.5 152.5,196C 151.167,195.333 149.833,194.667 148.5,194C 146.667,190.833 144.167,188.333 141,186.5C 140.333,185.167 139.667,183.833 139,182.5C 138.5,175.174 138.334,167.841 138.5,160.5 Z"/></g>
</svg>
