<?xml version="1.0" encoding="UTF-8"?>
<!DOCTYPE svg PUBLIC "-//W3C//DTD SVG 1.1//EN" "http://www.w3.org/Graphics/SVG/1.1/DTD/svg11.dtd">
<svg xmlns="http://www.w3.org/2000/svg" version="1.1" width="256px" height="256px" style="shape-rendering:geometricPrecision; text-rendering:geometricPrecision; image-rendering:optimizeQuality; fill-rule:evenodd; clip-rule:evenodd" xmlns:xlink="http://www.w3.org/1999/xlink">
<g><path style="opacity:1" fill="#464746" d="M 113.5,59.5 C 114.496,59.4142 115.329,59.7476 116,60.5C 116.667,105.167 116.667,149.833 116,194.5C 115.586,194.957 115.086,195.291 114.5,195.5C 101.847,183.348 89.3473,171.014 77,158.5C 76.3333,157.167 75.6667,155.833 75,154.5C 74.3333,136.5 74.3333,118.5 75,100.5C 75.6667,99.1667 76.3333,97.8333 77,96.5C 89.3687,84.2985 101.535,71.9651 113.5,59.5 Z"/></g>
<g><path style="opacity:1" fill="#464746" d="M 54.5,95.5 C 57.6852,95.0196 60.5185,95.6863 63,97.5C 63.6667,117.5 63.6667,137.5 63,157.5C 59.6667,160.167 56.3333,160.167 53,157.5C 52.3333,137.5 52.3333,117.5 53,97.5C 53.7172,96.9558 54.2172,96.2891 54.5,95.5 Z"/></g>
<g><path style="opacity:1" fill="#464746" d="M 140.5,106.5 C 151.881,108.91 156.547,115.91 154.5,127.5C 156.478,138.218 152.311,145.218 142,148.5C 140.167,148 139,146.833 138.5,145C 145.167,133.333 145.167,121.667 138.5,110C 138.978,108.697 139.645,107.531 140.5,106.5 Z"/></g>
</svg>
